<svg width="80" height="80" viewBox="0 0 80 80" fill="none" xmlns="http://www.w3.org/2000/svg">
<circle cx="40" cy="40" r="39" stroke="white" stroke-width="2"/>
<path d="M37.9167 46.1124V55.6666H42.0834V46.1124C42.0834 45.0166 41.6376 43.9416 40.8626 43.1666L36.6959 38.9999L42.0834 33.6124L46.2501 37.7791C47.0251 38.5541 48.1001 38.9999 49.1959 38.9999H56.6667V34.8333H49.1959L41.473 27.1103C41.2797 26.9167 41.0501 26.7631 40.7973 26.6583C40.5446 26.5535 40.2737 26.4995 40.0001 26.4995C39.7264 26.4995 39.4555 26.5535 39.2028 26.6583C38.95 26.7631 38.7205 26.9167 38.5271 27.1103L31.6667 33.9708C30.8792 34.7583 30.4459 35.8041 30.4459 36.9166C30.4459 38.0291 30.8792 39.0749 31.6667 39.8624L37.9167 46.1124Z" fill="white"/>
<path d="M48.3333 28.5833C50.6345 28.5833 52.5 26.7179 52.5 24.4167C52.5 22.1155 50.6345 20.25 48.3333 20.25C46.0321 20.25 44.1667 22.1155 44.1667 24.4167C44.1667 26.7179 46.0321 28.5833 48.3333 28.5833Z" fill="white"/>
<path d="M52.5 43.1667C47.9042 43.1667 44.1667 46.9042 44.1667 51.5C44.1667 56.0959 47.9042 59.8334 52.5 59.8334C57.0958 59.8334 60.8333 56.0959 60.8333 51.5C60.8333 46.9042 57.0958 43.1667 52.5 43.1667ZM52.5 55.6667C50.2021 55.6667 48.3333 53.7979 48.3333 51.5C48.3333 49.2021 50.2021 47.3334 52.5 47.3334C54.7979 47.3334 56.6667 49.2021 56.6667 51.5C56.6667 53.7979 54.7979 55.6667 52.5 55.6667ZM27.5 59.8334C32.0958 59.8334 35.8333 56.0959 35.8333 51.5C35.8333 46.9042 32.0958 43.1667 27.5 43.1667C22.9042 43.1667 19.1667 46.9042 19.1667 51.5C19.1667 56.0959 22.9042 59.8334 27.5 59.8334ZM27.5 47.3334C29.7979 47.3334 31.6667 49.2021 31.6667 51.5C31.6667 53.7979 29.7979 55.6667 27.5 55.6667C25.2021 55.6667 23.3333 53.7979 23.3333 51.5C23.3333 49.2021 25.2021 47.3334 27.5 47.3334Z" fill="white"/>
</svg>
