<svg width="50" height="50" viewBox="0 0 50 50" fill="none" xmlns="http://www.w3.org/2000/svg">
<path d="M31.8528 21.5528L29.7728 17.6685L25.6964 16.3096L25.687 16.3386L19.3513 18.1488C18.9031 18.2784 18.509 18.5497 18.2281 18.9221C17.9471 19.2946 17.7945 19.748 17.793 20.2146V25.8496H19.9414V20.2146L24.8828 18.8028L22.7 25.4921L22.6896 25.4883L20.7114 31.0272C20.6157 31.2909 20.4212 31.507 20.169 31.6298C19.9168 31.7526 19.6267 31.7725 19.3601 31.6852L14.9101 30.2016L14.2306 32.2398L18.6807 33.7231C19.4802 33.9896 20.3523 33.9322 21.1101 33.5633C21.8678 33.1945 22.4509 32.5435 22.7344 31.7498L24.3613 27.1946L25.5143 27.5705L28.7571 30.8133C28.8573 30.9129 28.9368 31.0313 28.9909 31.1618C29.045 31.2923 29.0727 31.4323 29.0723 31.5735V38.7403H31.2207V31.5735C31.2219 31.1502 31.139 30.7308 30.977 30.3396C30.815 29.9484 30.577 29.5933 30.2768 29.2947L27.0364 26.0543L28.8346 20.5438L30.1283 22.8724C30.2679 23.1235 30.472 23.3328 30.7197 23.4785C30.9673 23.6242 31.2494 23.7011 31.5368 23.7012H37.1289V21.5528H31.8528Z" fill="white"/>
<path d="M27.3821 15.4906C27.8041 15.8433 28.3338 16.0414 28.8836 16.0524C29.4334 16.0634 29.9706 15.8866 30.4063 15.5511C30.8421 15.2157 31.1504 14.7416 31.2804 14.2073C31.4104 13.6729 31.3543 13.1102 31.1214 12.6121C30.8884 12.1139 30.4925 11.7101 29.9991 11.4673C29.5057 11.2245 28.9442 11.1572 28.4073 11.2766C27.8705 11.3959 27.3904 11.6948 27.0464 12.1238C26.7023 12.5528 26.5149 13.0864 26.515 13.6363C26.5143 13.9901 26.5917 14.3397 26.7416 14.6602C26.8915 14.9808 27.1102 15.2643 27.3821 15.4906Z" fill="white"/>
<circle cx="25" cy="25" r="24" stroke="white" stroke-width="2"/>
</svg>
