<svg width="50" height="50" viewBox="0 0 50 50" fill="none" xmlns="http://www.w3.org/2000/svg">
<path d="M41.8824 39C41.1634 38.9998 40.4529 38.8456 39.7986 38.5475C39.1241 38.2411 38.3922 38.0813 37.6513 38.0788C36.9089 38.0817 36.1755 38.2415 35.4991 38.5475C34.8449 38.8454 34.1344 38.9995 33.4156 38.9995C32.6969 38.9995 31.9864 38.8454 31.3322 38.5475C30.6555 38.2431 29.9227 38.0835 29.1807 38.0788C28.4383 38.0823 27.705 38.242 27.0285 38.5475C26.373 38.8453 25.6615 38.9994 24.9415 38.9994C24.2216 38.9994 23.51 38.8453 22.8546 38.5475C22.1813 38.242 21.4509 38.0822 20.7115 38.0788C19.9694 38.0823 19.2363 38.242 18.56 38.5475C17.9047 38.8455 17.1932 38.9997 16.4734 38.9997C15.7536 38.9997 15.0421 38.8455 14.3868 38.5475C13.7107 38.2414 12.9775 38.0816 12.2353 38.0788C11.4957 38.083 10.7654 38.2427 10.0915 38.5475C9.43434 38.845 8.72138 38.9992 8 39V35.8969C8.72028 35.8929 9.43209 35.7413 10.0915 35.4515C10.7635 35.1405 11.4948 34.9782 12.2353 34.9758C13.0019 34.9758 13.7367 35.1522 14.3868 35.4515C15.0425 35.7413 15.7509 35.8929 16.4678 35.8969C17.1884 35.894 17.9007 35.7424 18.56 35.4515C19.2345 35.1397 19.9684 34.9774 20.7115 34.9758C21.4725 34.9758 22.2038 35.1522 22.8546 35.4515C23.5132 35.7416 24.2244 35.8932 24.944 35.8969C25.662 35.8932 26.3716 35.7416 27.0285 35.4515C27.7032 35.1397 28.4374 34.9774 29.1807 34.9758C29.9381 34.9758 30.6722 35.1522 31.3322 35.4515C31.964 35.7289 32.6734 35.8969 33.4146 35.8969C34.1327 35.8938 34.8424 35.7421 35.4991 35.4515C36.1736 35.1392 36.9079 34.9769 37.6513 34.9758C38.4179 34.9758 39.1513 35.1522 39.7986 35.4515C40.4551 35.742 41.1645 35.8936 41.8824 35.8969V39ZM36.9751 30.2216C39.2 30.2216 41.0056 28.4216 41.0056 26.2136C41.0056 24.0035 39.2 22.2127 36.9751 22.2127C34.7466 22.2127 32.9431 24.0042 32.9431 26.2136C32.9431 28.4216 34.5864 30.2216 36.9751 30.2216ZM13.4995 32.4748C13.8122 32.5489 14.1073 32.6569 14.3875 32.7826C15.042 33.0777 15.7512 33.2318 16.4692 33.2351C17.2104 33.2351 17.9296 33.0671 18.5607 32.7826C19.2362 32.4736 19.9694 32.311 20.7122 32.3054C21.4732 32.3054 22.2059 32.4904 22.8553 32.7826C23.5124 33.078 24.2242 33.2321 24.9447 33.2351C25.6788 33.2351 26.3974 33.0671 27.0285 32.7826C27.7042 32.4737 28.4377 32.3111 29.1807 32.3054C29.9388 32.3054 30.6736 32.4904 31.3322 32.7826C31.9647 33.0664 32.6734 33.2351 33.416 33.2351C33.956 33.2351 34.4762 33.144 34.9668 32.9908L28.2433 20.9513L36.0638 19.5346C37.2115 19.3172 38.0445 18.4221 38.0445 17.2765C38.0445 16.0129 37.0089 15 35.7419 15L35.4807 15.0078L23.4002 17.1904C22.5525 17.3831 21.4294 18.6155 22.0689 20.1275L22.172 20.3711L25.3245 26.0202L13.4995 32.4748Z" fill="white"/>
<circle cx="25" cy="25" r="24" stroke="white" stroke-width="2"/>
</svg>
