<svg width="50" height="50" viewBox="0 0 50 50" fill="none" xmlns="http://www.w3.org/2000/svg">
<g clip-path="url(#clip0)">
<path d="M28.1839 16.1328C29.7043 16.1328 30.9378 14.8993 30.9378 13.3789C30.9378 11.8585 29.7043 10.625 28.1839 10.625C26.6635 10.625 25.43 11.8585 25.43 13.3789C25.43 14.8993 26.6635 16.1328 28.1839 16.1328ZM33.6056 24.6871L32.2688 24.0101L31.7123 22.3234C30.8689 19.7645 28.5167 17.9745 25.8488 17.9688C23.7834 17.963 22.6417 18.5482 20.4959 19.4146C19.2566 19.9137 18.2411 20.8604 17.6445 22.0652L17.2601 22.8455C16.8126 23.752 17.174 24.8535 18.0748 25.3068C18.9698 25.76 20.0599 25.3928 20.5131 24.4863L20.8975 23.7061C21.0983 23.3044 21.4311 22.9889 21.8442 22.8225L23.3818 22.2029L22.5097 25.6854C22.2114 26.8788 22.5326 28.1467 23.3646 29.059L26.8012 32.8112C27.2143 33.2644 27.5069 33.8094 27.6561 34.4004L28.706 38.6058C28.9527 39.5869 29.951 40.1893 30.9321 39.9426C31.9131 39.6959 32.5155 38.6976 32.2688 37.7166L30.9952 32.6104C30.846 32.0194 30.5534 31.4686 30.1403 31.0211L27.5298 28.1697L28.5167 24.2281L28.8322 25.1748C29.1363 26.0985 29.7903 26.8616 30.6509 27.2976L31.9877 27.9746C32.8827 28.4279 33.9728 28.0607 34.4261 27.1542C34.8678 26.2534 34.5064 25.1404 33.6056 24.6871ZM20.473 32.7595C20.2894 33.2242 20.014 33.6431 19.6583 33.993L16.7896 36.8674C16.0724 37.5846 16.0724 38.7493 16.7896 39.4664C17.5068 40.1836 18.6657 40.1836 19.3829 39.4664L22.7908 36.0585C23.1408 35.7085 23.4162 35.2897 23.6055 34.825L24.3801 32.8857C21.2073 29.4261 22.1597 30.4875 21.6606 29.8048L20.473 32.7595Z" fill="white"/>
</g>
<circle cx="25" cy="25" r="24" stroke="white" stroke-width="2"/>
<defs>
<clipPath id="clip0">
<rect width="18.3594" height="29.375" fill="white" transform="translate(16.25 10.625)"/>
</clipPath>
</defs>
</svg>
