<svg width="50" height="50" viewBox="0 0 50 50" fill="none" xmlns="http://www.w3.org/2000/svg">
<path d="M25.5 13C27.165 13 28.5 14.335 28.5 16C28.5 17.665 27.165 19 25.5 19C23.835 19 22.5 17.665 22.5 16C22.5 14.335 23.85 13 25.5 13ZM39 31V28C35.64 28 32.76 26.56 30.6 23.98L28.59 21.58C28.3109 21.2417 27.9604 20.9694 27.5636 20.7827C27.1668 20.596 26.7335 20.4994 26.295 20.5H24.75C23.835 20.5 22.995 20.89 22.425 21.58L20.415 23.98C18.24 26.56 15.36 28 12 28V31C16.155 31 19.785 29.245 22.5 26.125V29.5L16.68 31.825C15.675 32.23 15 33.25 15 34.315C15 35.8 16.2 37 17.685 37H21V36.25C21 35.2554 21.3951 34.3016 22.0984 33.5984C22.8016 32.8951 23.7554 32.5 24.75 32.5H29.25C29.67 32.5 30 32.83 30 33.25C30 33.67 29.67 34 29.25 34H24.75C23.505 34 22.5 35.005 22.5 36.25V37H33.315C34.8 37 36 35.8 36 34.315C36 33.25 35.325 32.23 34.32 31.825L28.5 29.5V26.125C31.215 29.245 34.845 31 39 31Z" fill="white"/>
<circle cx="25" cy="25" r="24" stroke="white" stroke-width="2"/>
</svg>
